<svg width="358" height="705" viewBox="0 0 358 705" fill="none" xmlns="http://www.w3.org/2000/svg">
<path d="M357.429 309.017C357.299 306.595 356.924 304.182 356.234 301.854C355.481 299.313 354.514 296.834 353.362 294.447C353.318 294.353 353.272 294.258 353.225 294.165C353.117 293.945 353.006 293.728 352.895 293.511C351.465 290.716 349.826 288.298 347.497 286.179C344.067 283.057 339.831 280.459 335.608 278.561C329.21 275.684 322.152 275.277 315.226 275.277C306.568 275.277 228.899 274.535 220.061 274.45L220.066 274.443C220.066 274.443 258.4 43.6053 258.464 43.2201C259.322 38.0539 260.105 32.7426 260.125 27.4552C260.133 24.7707 259.946 22.0779 259.453 19.4363C258.992 16.9555 258.62 14.4953 257.619 12.1431C257.5 11.8619 257.373 11.584 257.239 11.3102C255.638 8.05326 253.053 5.24503 250.106 3.15185C244.315 -0.962769 234.694 -0.89762 228.578 2.50772C223.007 5.61039 218.404 11.3374 214.969 16.5901C206.901 28.9282 198.655 41.169 190.953 53.7437C188.344 58.0052 185.841 62.3285 183.289 66.6262C181.479 69.6752 179.667 72.7251 177.857 75.775L171.687 86.165C169.41 89.9984 167.134 93.831 164.858 97.6644C162.388 101.824 159.917 105.984 157.447 110.144C154.808 114.588 152.17 119.031 149.532 123.474C146.751 128.157 143.97 132.84 141.188 137.523C138.291 142.402 135.394 147.281 132.497 152.161C129.509 157.193 126.52 162.225 123.532 167.257C120.478 172.398 117.425 177.54 114.372 182.681L105.095 198.303C101.99 203.533 98.8844 208.762 95.7792 213.993C92.6856 219.201 89.5929 224.41 86.4993 229.619C83.4445 234.763 80.3896 239.908 77.3348 245.052C74.3435 250.088 71.353 255.125 68.3625 260.162C65.461 265.047 62.5604 269.931 59.6598 274.816C56.8747 279.507 54.0896 284.197 51.3036 288.887C48.6603 293.339 46.017 297.791 43.3729 302.243C40.8962 306.413 38.4203 310.584 35.9437 314.754C33.66 318.599 31.3771 322.444 29.0942 326.289C27.0291 329.765 24.9647 333.242 22.9004 336.718C20.145 341.359 17.5149 346.036 14.7001 350.652C11.8836 355.272 9.69556 360.151 7.27495 364.962C2.70756 374.037 -0.491618 384.847 0.063431 395.13C0.194564 397.552 0.569 399.965 1.25848 402.294C2.01229 404.835 2.9797 407.313 4.13021 409.701C4.17557 409.795 4.22095 409.889 4.26713 409.983C4.37435 410.202 4.48734 410.419 4.59785 410.637C6.02795 413.432 7.6667 415.848 9.99658 417.969C13.425 421.089 17.6625 423.688 21.8844 425.587C28.2827 428.463 35.3416 428.869 42.2661 428.869C50.9242 428.869 128.593 429.612 137.431 429.696L137.427 429.705C137.427 429.705 99.093 660.542 99.0287 660.927C98.171 666.094 97.3875 671.404 97.3685 676.692C97.3594 679.377 97.5475 682.069 98.039 684.71C98.5009 687.192 98.872 689.651 99.8732 692.004C99.9928 692.286 100.119 692.563 100.254 692.837C101.854 696.094 104.44 698.902 107.387 700.995C113.178 705.11 122.798 705.045 128.916 701.639C134.486 698.537 139.09 692.811 142.524 687.557C150.591 675.218 158.839 662.979 166.539 650.405C169.149 646.143 171.651 641.818 174.203 637.521C176.014 634.471 177.825 631.422 179.636 628.373C181.693 624.909 183.749 621.446 185.805 617.982C188.082 614.15 190.359 610.316 192.636 606.483C195.106 602.323 197.576 598.163 200.046 594.002C202.684 589.56 205.323 585.116 207.962 580.673C210.743 575.99 213.524 571.307 216.304 566.624C219.201 561.745 222.099 556.866 224.997 551.987C227.985 546.954 230.973 541.922 233.961 536.891C237.014 531.749 240.067 526.607 243.12 521.467C246.212 516.258 249.304 511.052 252.397 505.844C255.503 500.614 258.609 495.384 261.714 490.155C264.807 484.946 267.9 479.737 270.993 474.528C274.048 469.384 277.103 464.24 280.158 459.095C283.149 454.058 286.14 449.023 289.13 443.986C292.031 439.101 294.933 434.216 297.833 429.331C300.618 424.64 303.404 419.951 306.189 415.259C308.832 410.808 311.476 406.356 314.12 401.904C316.596 397.734 319.073 393.564 321.549 389.393L328.399 377.858C330.463 374.382 332.528 370.906 334.593 367.429C337.347 362.788 339.978 358.111 342.792 353.496C345.609 348.875 347.797 343.995 350.218 339.186C354.785 330.11 357.985 319.3 357.429 309.017Z" fill="white"/>
</svg>
