<svg width="358" height="705" viewBox="0 0 358 705" fill="none" xmlns="http://www.w3.org/2000/svg">
<path d="M357.428 309.021C357.298 306.598 356.923 304.185 356.233 301.857C355.48 299.316 354.513 296.838 353.361 294.45C353.317 294.356 353.271 294.261 353.224 294.168C353.116 293.949 353.005 293.731 352.894 293.514C351.464 290.719 349.825 288.302 347.496 286.182C344.066 283.06 339.83 280.462 335.607 278.564C329.209 275.687 322.151 275.281 315.225 275.281C306.567 275.281 228.898 274.538 220.06 274.453L220.065 274.446C220.065 274.446 258.399 43.6084 258.463 43.2233C259.321 38.0571 260.104 32.7458 260.124 27.4584C260.132 24.7739 259.945 22.0811 259.452 19.4395C258.991 16.9587 258.619 14.4985 257.618 12.1463C257.499 11.8651 257.372 11.5871 257.238 11.3133C255.637 8.05644 253.052 5.24821 250.105 3.15502C244.314 -0.959595 234.693 -0.894446 228.577 2.5109C223.006 5.61356 218.403 11.3406 214.968 16.5933C206.9 28.9314 198.654 41.1721 190.952 53.7469C188.343 58.0083 185.84 62.3316 183.288 66.6293C181.478 69.6784 179.666 72.7283 177.856 75.7781L171.686 86.1682C169.409 90.0016 167.133 93.8341 164.857 97.6675C162.387 101.828 159.916 105.987 157.446 110.147C154.807 114.591 152.169 119.034 149.531 123.477C146.75 128.161 143.968 132.843 141.187 137.526C138.29 142.405 135.393 147.285 132.496 152.164C129.508 157.196 126.519 162.228 123.531 167.26C120.477 172.401 117.424 177.543 114.371 182.684L105.094 198.306C101.989 203.536 98.8834 208.765 95.7782 213.996C92.6846 219.204 89.5919 224.413 86.4983 229.622C83.4434 234.766 80.3886 239.911 77.3338 245.055C74.3425 250.091 71.352 255.128 68.3615 260.165C65.46 265.05 62.5594 269.935 59.6588 274.82C56.8737 279.51 54.0886 284.2 51.3026 288.89C48.6593 293.342 46.016 297.794 43.3719 302.246C40.8952 306.416 38.4193 310.587 35.9427 314.758C33.659 318.602 31.3761 322.447 29.0932 326.292C27.0281 329.769 24.9637 333.245 22.8994 336.721C20.144 341.362 17.5139 346.039 14.6991 350.655C11.8826 355.275 9.69455 360.154 7.27395 364.965C2.70655 374.04 -0.492625 384.85 0.0624239 395.133C0.193557 397.555 0.567992 399.968 1.25747 402.297C2.01128 404.838 2.9787 407.316 4.12921 409.704C4.17457 409.798 4.21994 409.892 4.26613 409.986C4.37334 410.205 4.48633 410.422 4.59685 410.64C6.02694 413.435 7.66569 415.851 9.99557 417.972C13.424 421.093 17.6615 423.691 21.8833 425.59C28.2817 428.466 35.3406 428.872 42.2651 428.872C50.9232 428.872 128.592 429.615 137.43 429.7L137.426 429.708C137.426 429.708 99.092 660.545 99.0277 660.93C98.17 666.097 97.3865 671.407 97.3675 676.695C97.3584 679.38 97.5465 682.072 98.038 684.714C98.4999 687.195 98.871 689.655 99.8722 692.008C99.9918 692.289 100.118 692.567 100.253 692.84C101.853 696.097 104.439 698.905 107.386 700.998C113.177 705.113 122.797 705.048 128.915 701.642C134.485 698.54 139.089 692.814 142.523 687.56C150.59 675.222 158.838 662.982 166.538 650.408C169.148 646.146 171.65 641.821 174.202 637.524C176.013 634.475 177.824 631.426 179.635 628.376C181.692 624.913 183.748 621.449 185.804 617.986C188.081 614.153 190.358 610.319 192.635 606.486C195.105 602.326 197.575 598.166 200.045 594.006C202.683 589.563 205.322 585.119 207.961 580.676C210.742 575.993 213.523 571.31 216.303 566.628C219.2 561.748 222.098 556.869 224.996 551.99C227.984 546.958 230.972 541.925 233.96 536.894C237.013 531.752 240.066 526.61 243.119 521.47C246.211 516.262 249.303 511.055 252.396 505.847C255.502 500.617 258.608 495.388 261.713 490.158C264.806 484.949 267.899 479.741 270.992 474.532C274.047 469.387 277.102 464.243 280.157 459.098C283.148 454.062 286.139 449.026 289.129 443.989C292.03 439.104 294.932 434.219 297.832 429.334C300.617 424.643 303.403 419.954 306.188 415.263C308.831 410.811 311.475 406.359 314.119 401.908C316.595 397.737 319.072 393.567 321.548 389.396L328.398 377.862C330.462 374.385 332.527 370.909 334.592 367.432C337.346 362.791 339.977 358.114 342.791 353.499C345.608 348.879 347.796 343.999 350.217 339.189C354.784 330.113 357.984 319.303 357.428 309.021Z" fill="black"/>
</svg>
