<svg width="358" height="705" viewBox="0 0 358 705" fill="none" xmlns="http://www.w3.org/2000/svg">
<path d="M357.433 309.013C357.302 306.591 356.928 304.178 356.238 301.849C355.485 299.308 354.517 296.83 353.366 294.442C353.321 294.348 353.275 294.254 353.229 294.16C353.121 293.941 353.01 293.723 352.898 293.506C351.469 290.711 349.829 288.294 347.5 286.174C344.071 283.053 339.834 280.455 335.612 278.556C329.214 275.68 322.155 275.273 315.23 275.273C306.572 275.273 228.903 274.531 220.065 274.446L220.069 274.438C220.069 274.438 258.404 43.6009 258.467 43.2157C259.326 38.0495 260.109 32.7382 260.129 27.4508C260.137 24.7663 259.95 22.0735 259.457 19.4319C258.996 16.9511 258.624 14.4909 257.623 12.1388C257.503 11.8575 257.377 11.5796 257.243 11.3058C255.642 8.04887 253.056 5.24064 250.11 3.14745C244.318 -0.967164 234.698 -0.902015 228.581 2.50333C223.01 5.60599 218.408 11.333 214.972 16.5857C206.905 28.9238 198.658 41.1646 190.957 53.7393C188.347 58.0008 185.845 62.3241 183.293 66.6218C181.482 69.6708 179.671 72.7207 177.861 75.7706L171.691 86.1606C169.414 89.994 167.138 93.8266 164.861 97.66C162.391 101.82 159.921 105.98 157.451 110.14C154.812 114.584 152.174 119.026 149.535 123.469C146.754 128.153 143.973 132.836 141.192 137.519C138.295 142.398 135.398 147.277 132.5 152.156C129.512 157.189 126.523 162.22 123.535 167.252C120.482 172.394 117.429 177.536 114.376 182.676L105.099 198.299C101.994 203.528 98.8881 208.758 95.783 213.988C92.6894 219.197 89.5966 224.406 86.503 229.615C83.4482 234.759 80.3934 239.903 77.3385 245.047C74.3472 250.084 71.3567 255.121 68.3662 260.157C65.4648 265.042 62.5642 269.927 59.6636 274.812C56.8784 279.502 54.0933 284.193 51.3074 288.883C48.6641 293.335 46.0208 297.787 43.3766 302.239C40.9 306.409 38.4241 310.579 35.9474 314.75C33.6637 318.595 31.3808 322.44 29.098 326.285C27.0328 329.761 24.9685 333.237 22.9042 336.714C20.1487 341.354 17.5186 346.031 14.7038 350.647C11.8873 355.268 9.69931 360.147 7.27871 364.958C2.71131 374.032 -0.487864 384.843 0.0671847 395.126C0.198318 397.548 0.572753 399.96 1.26223 402.289C2.01604 404.83 2.98346 407.309 4.13397 409.696C4.17933 409.79 4.2247 409.884 4.27089 409.978C4.3781 410.198 4.49109 410.415 4.60161 410.632C6.0317 413.427 7.67045 415.844 10.0003 417.964C13.4288 421.085 17.6663 423.684 21.8881 425.582C28.2864 428.458 35.3454 428.865 42.2699 428.865C50.928 428.865 128.597 429.608 137.435 429.692L137.431 429.7C137.431 429.7 99.0968 660.538 99.0324 660.922C98.1747 666.089 97.3912 671.4 97.3722 676.688C97.3632 679.372 97.5512 682.064 98.0428 684.706C98.5046 687.188 98.8758 689.647 99.877 692C99.9966 692.281 100.123 692.559 100.258 692.833C101.858 696.09 104.444 698.897 107.39 700.99C113.182 705.106 122.802 705.041 128.919 701.635C134.49 698.533 139.093 692.807 142.527 687.552C150.595 675.214 158.842 662.974 166.543 650.4C169.152 646.139 171.655 641.814 174.206 637.517C176.018 634.467 177.829 631.418 179.64 628.368C181.697 624.905 183.753 621.441 185.809 617.978C188.086 614.146 190.362 610.311 192.639 606.479C195.109 602.319 197.58 598.159 200.05 593.998C202.688 589.555 205.326 585.111 207.965 580.669C210.747 575.986 213.528 571.303 216.308 566.62C219.205 561.741 222.102 556.862 225 551.983C227.988 546.95 230.977 541.917 233.965 536.887C237.018 531.744 240.071 526.603 243.124 521.462C246.216 516.254 249.308 511.048 252.401 505.839C255.507 500.61 258.613 495.38 261.718 490.15C264.811 484.941 267.903 479.733 270.997 474.524C274.052 469.379 277.107 464.235 280.162 459.091C283.153 454.054 286.144 449.018 289.134 443.981C292.035 439.097 294.937 434.212 297.836 429.327C300.622 424.636 303.407 419.946 306.193 415.255C308.836 410.804 311.48 406.351 314.123 401.9C316.6 397.729 319.077 393.559 321.553 389.389L328.403 377.854C330.467 374.378 332.531 370.901 334.597 367.424C337.351 362.784 339.982 358.106 342.796 353.491C345.613 348.871 347.801 343.991 350.222 339.181C354.789 330.106 357.989 319.296 357.433 309.013Z" fill="white"/>
<path d="M204.082 287.947C204.102 287.909 204.12 287.868 204.14 287.83L207.282 270.551L212.23 241.683L218.003 205.392L227.9 146.831L237.797 87.4462L245.22 42.0823L246.045 36.3084C246.045 36.3084 246.869 30.5352 246.869 29.7105C246.869 26.5022 246.982 22.9303 244.804 20.3291C243.373 18.6194 241.494 17.3443 239.193 17.3575C238.019 17.3649 236.868 17.6124 235.793 18.0487L233.25 33.5859C233.227 33.7583 233.206 33.9315 233.182 34.103C232.897 36.1731 232.583 38.2382 232.264 40.3026C231.961 42.2638 231.828 44.2827 231.381 46.2176C231.069 47.8283 230.817 49.4613 230.551 51.086C229.867 55.2658 229.183 59.4456 228.498 63.6262L226.36 76.6991C225.864 79.7275 225.369 82.756 224.873 85.7844C224.783 86.3386 224.691 86.892 224.601 87.4462L214.705 146.831L204.808 205.392L199.035 241.683L194.086 270.551L190.937 287.872H194.202C194.202 287.872 197.954 287.9 204.082 287.947Z" fill="black"/>
<path d="M343.6 306.983C342.965 303.449 341.5 299.961 339.299 297.063C334.794 291.131 326.583 288.049 319.28 288.049C318.461 288.049 313.558 288.016 306.244 287.964C306.255 287.994 306.262 288.024 306.272 288.054C313.529 288.106 321.637 291.182 326.103 297.063C328.304 299.961 329.769 303.449 330.404 306.983C331.321 312.084 330.055 317.229 328.401 322.041C326.737 326.887 324.682 331.591 322.372 336.162C319.51 341.829 316.461 347.406 313.095 352.791L305.672 365.162L153.096 622.48L139.075 645.573L135.669 650.783L124.457 669.25L116.138 681.972C117.487 683.356 119.174 684.327 121.184 684.317C123.427 684.304 125.594 683.499 127.253 681.987C128.093 681.223 128.814 680.341 129.532 679.461C130.512 678.262 131.534 677.092 132.389 675.809C132.911 675.026 133.432 674.243 133.954 673.461C135.109 671.73 136.263 669.998 137.417 668.266L138.25 667.016L152.271 645.573L166.292 622.48L318.868 365.162L326.291 352.791C329.656 347.406 332.705 341.829 335.568 336.162C337.877 331.591 339.933 326.887 341.597 322.041C343.251 317.229 344.517 312.084 343.6 306.983Z" fill="black"/>
</svg>
