<svg width="358" height="705" viewBox="0 0 358 705" fill="none" xmlns="http://www.w3.org/2000/svg">
<path d="M357.433 309.007C357.302 306.585 356.928 304.172 356.238 301.844C355.485 299.303 354.517 296.824 353.366 294.437C353.321 294.343 353.275 294.248 353.229 294.155C353.121 293.935 353.01 293.717 352.898 293.5C351.469 290.705 349.829 288.288 347.5 286.169C344.071 283.047 339.834 280.449 335.612 278.55C329.214 275.674 322.155 275.267 315.23 275.267C306.572 275.267 228.903 274.525 220.065 274.44L220.069 274.433C220.069 274.433 258.404 43.595 258.467 43.2098C259.326 38.0437 260.109 32.7324 260.129 27.445C260.137 24.7604 259.95 22.0677 259.457 19.426C258.996 16.9452 258.624 14.485 257.623 12.1329C257.503 11.8517 257.377 11.5737 257.243 11.2999C255.642 8.04301 253.056 5.23478 250.11 3.14159C244.318 -0.973023 234.698 -0.907874 228.581 2.49747C223.01 5.60013 218.408 11.3271 214.972 16.5799C206.905 28.918 198.658 41.1587 190.957 53.7335C188.347 57.9949 185.845 62.3182 183.293 66.6159C181.482 69.665 179.671 72.7148 177.861 75.7647L171.691 86.1548C169.414 89.9881 167.138 93.8207 164.861 97.6541C162.391 101.814 159.921 105.974 157.451 110.134C154.812 114.578 152.174 119.021 149.535 123.463C146.754 128.147 143.973 132.83 141.192 137.513C138.295 142.392 135.398 147.271 132.5 152.15C129.512 157.183 126.523 162.215 123.535 167.246C120.482 172.388 117.429 177.53 114.376 182.671L105.099 198.293C101.994 203.522 98.8881 208.752 95.783 213.983C92.6894 219.191 89.5966 224.4 86.503 229.609C83.4482 234.753 80.3934 239.897 77.3385 245.041C74.3472 250.078 71.3567 255.115 68.3662 260.151C65.4648 265.036 62.5642 269.921 59.6636 274.806C56.8784 279.496 54.0933 284.187 51.3074 288.877C48.6641 293.329 46.0208 297.781 43.3766 302.233C40.9 306.403 38.4241 310.573 35.9474 314.744C33.6637 318.589 31.3808 322.434 29.098 326.279C27.0328 329.755 24.9685 333.231 22.9042 336.708C20.1487 341.348 17.5186 346.026 14.7038 350.642C11.8873 355.262 9.69931 360.141 7.27871 364.952C2.71131 374.026 -0.487864 384.837 0.0671847 395.12C0.198318 397.542 0.572753 399.954 1.26223 402.283C2.01604 404.824 2.98346 407.303 4.13397 409.69C4.17933 409.784 4.2247 409.878 4.27089 409.972C4.3781 410.192 4.49109 410.409 4.60161 410.626C6.0317 413.422 7.67045 415.838 10.0003 417.958C13.4288 421.079 17.6663 423.678 21.8881 425.577C28.2864 428.452 35.3454 428.859 42.2699 428.859C50.928 428.859 128.597 429.602 137.435 429.686L137.431 429.694C137.431 429.694 99.0968 660.532 99.0324 660.916C98.1747 666.083 97.3912 671.394 97.3722 676.682C97.3632 679.367 97.5512 682.058 98.0428 684.7C98.5046 687.182 98.8758 689.641 99.877 691.994C99.9966 692.275 100.123 692.553 100.258 692.827C101.858 696.084 104.444 698.891 107.39 700.985C113.182 705.1 122.802 705.035 128.919 701.629C134.49 698.527 139.093 692.801 142.527 687.546C150.595 675.208 158.842 662.968 166.543 650.394C169.152 646.133 171.655 641.808 174.206 637.511C176.018 634.461 177.829 631.412 179.64 628.362C181.697 624.899 183.753 621.435 185.809 617.972C188.086 614.14 190.362 610.305 192.639 606.473C195.109 602.313 197.58 598.153 200.05 593.992C202.688 589.549 205.326 585.106 207.965 580.663C210.747 575.98 213.528 571.297 216.308 566.614C219.205 561.735 222.102 556.856 225 551.977C227.988 546.944 230.977 541.912 233.965 536.881C237.018 531.738 240.071 526.597 243.124 521.456C246.216 516.248 249.308 511.042 252.401 505.833C255.507 500.604 258.613 495.374 261.718 490.144C264.811 484.935 267.903 479.727 270.997 474.518C274.052 469.373 277.107 464.229 280.162 459.085C283.153 454.048 286.144 449.012 289.134 443.976C292.035 439.091 294.937 434.206 297.836 429.321C300.622 424.63 303.407 419.94 306.193 415.249C308.836 410.798 311.48 406.345 314.123 401.894C316.6 397.723 319.077 393.554 321.553 389.383L328.403 377.848C330.467 374.372 332.531 370.896 334.597 367.418C337.351 362.778 339.982 358.101 342.796 353.485C345.613 348.865 347.801 343.985 350.222 339.175C354.789 330.1 357.989 319.29 357.433 309.007Z" fill="black"/>
<path d="M204.082 287.942C204.102 287.903 204.12 287.862 204.14 287.824L207.282 270.545L212.23 241.677L218.003 205.386L227.9 146.826L237.797 87.4404L245.22 42.0765L246.045 36.3025C246.045 36.3025 246.869 30.5293 246.869 29.7046C246.869 26.4964 246.982 22.9244 244.804 20.3232C243.373 18.6135 241.494 17.3385 239.193 17.3517C238.019 17.3591 236.868 17.6065 235.793 18.0428L233.25 33.58C233.227 33.7524 233.206 33.9256 233.182 34.0971C232.897 36.1672 232.583 38.2324 232.264 40.2967C231.961 42.2579 231.828 44.2769 231.381 46.2117C231.069 47.8224 230.817 49.4554 230.551 51.0801C229.867 55.2599 229.183 59.4397 228.498 63.6203L226.36 76.6932C225.864 79.7217 225.369 82.7501 224.873 85.7785C224.783 86.3328 224.691 86.8862 224.601 87.4404L214.705 146.826L204.808 205.386L199.035 241.677L194.086 270.545L190.937 287.866H194.202C194.202 287.866 197.954 287.895 204.082 287.942Z" fill="white"/>
<path d="M343.6 306.976C342.965 303.442 341.5 299.955 339.299 297.057C334.794 291.125 326.583 288.043 319.28 288.043C318.461 288.043 313.558 288.01 306.244 287.958C306.255 287.988 306.262 288.018 306.272 288.048C313.529 288.1 321.637 291.176 326.103 297.057C328.304 299.955 329.769 303.442 330.404 306.976C331.321 312.078 330.055 317.223 328.401 322.035C326.737 326.881 324.682 331.585 322.372 336.156C319.51 341.822 316.461 347.4 313.095 352.785L305.672 365.156L153.096 622.474L139.075 645.567L135.669 650.777L124.457 669.243L116.138 681.966C117.487 683.35 119.174 684.321 121.184 684.311C123.427 684.297 125.594 683.492 127.253 681.981C128.093 681.217 128.814 680.335 129.532 679.455C130.512 678.256 131.534 677.086 132.389 675.803C132.911 675.02 133.432 674.237 133.954 673.455C135.109 671.723 136.263 669.991 137.417 668.26L138.25 667.01L152.271 645.567L166.292 622.474L318.868 365.156L326.291 352.785C329.656 347.4 332.705 341.822 335.568 336.156C337.877 331.585 339.933 326.881 341.597 322.035C343.251 317.223 344.517 312.078 343.6 306.976Z" fill="white"/>
</svg>
